# xmcd
#
# Track frame offsets: 
#        150
#        12246
#        20509
#        30940
#        42095
#        53402
#        64166
#        74494
#        83058
#        94048
#        105339
#        116632
#        129211
#        141347
#        149627
#        160160
#        171426
#        183260
#        195006
#        205395
#        214047
#        225150
#        236667
#        248127
#        260921
#        271453
#        285164
#        298968
#        310109
#        322788
#
# Disc length: 4469 seconds
#
# Revision: 0
# Processed by: cddbd v1.5.2PL0 Copyright (c) Steve Scherf et al.
# Submitted via: ExactAudioCopy v0.95b3
#
DISCID=a111731e
DTITLE=The Monkees - The Monkees Complete 04 of 28
DYEAR=1900
DGENRE=
TTITLE0=She
TTITLE1=When Loves Comes Knockin' (At Your Door)
TTITLE2=Mary, Mary
TTITLE3=Hold On Girl
TTITLE4=Your Aunt Grizelda
TTITLE5=(I'm Not Your) Steppin' Stone
TTITLE6=Look Out (Here Comes Tomorrow)
TTITLE7=The Kind Of Girl I Could Love
TTITLE8=The Day We Fell In Love
TTITLE9=Sometime In The Morning
TTITLE10=Laugh
TTITLE11=I'm A Believer
TTITLE12=She (mono)
TTITLE13=When Love Comes Knockin' (At Your Door) (mono)
TTITLE14=Mary, Mary (mono)
TTITLE15=Hold On Girl (mono)
TTITLE16=Your Auntie Grizelda (mono)
TTITLE17=(I'm Not Your) Steppin' Stone (mono)
TTITLE18=Look Out (Here Comes Tomorrow) (mono)
TTITLE19=The Kind Of Girl I Could Love (mono)
TTITLE20=The Day We Fall In Love (mono)
TTITLE21=Sometime In The Morning (mono)
TTITLE22=Laugh (mono)
TTITLE23=I'm A Believer (mono)
TTITLE24=Apples, Peaches, Bananas and Pears
TTITLE25=Do Not Ask For Love (Prithee)
TTITLE26=Do Not Ask For Love (Prithee) (alt. mix)
TTITLE27=Don't Listen To Linda (original version)
TTITLE28=Hold On Girl (demo backing track)
TTITLE29=Hold On Girl (original version)
EXTD=
EXTT0=
EXTT1=
EXTT2=
EXTT3=
EXTT4=
EXTT5=
EXTT6=
EXTT7=
EXTT8=
EXTT9=
EXTT10=
EXTT11=
EXTT12=
EXTT13=
EXTT14=
EXTT15=
EXTT16=
EXTT17=
EXTT18=
EXTT19=
EXTT20=
EXTT21=
EXTT22=
EXTT23=
EXTT24=
EXTT25=
EXTT26=
EXTT27=
EXTT28=
EXTT29=
PLAYORDER=
